<svg width="82" height="80" viewBox="0 0 82 80" fill="none" xmlns="http://www.w3.org/2000/svg">
<ellipse cx="41" cy="40" rx="41" ry="40" fill="#00CFC3"/>
<g clip-path="url(#clip0)">
<path d="M46.9028 42.802C50.594 37.7168 49.3595 30.6753 44.1472 27.075C38.9349 23.4747 31.7173 24.6782 28.027 29.7643C24.3367 34.8495 25.5703 41.8901 30.7835 45.4904C34.5038 48.0601 39.4225 48.2579 43.3465 45.9971L51.8726 54.2654C52.7932 55.2108 54.3249 55.2487 55.294 54.3505C56.2631 53.4532 56.3019 51.9589 55.3821 51.0135C55.353 50.9834 55.3248 50.9558 55.294 50.9274L46.9028 42.802ZM37.4578 43.5728C33.339 43.5737 29.9996 40.3183 29.997 36.2999C29.9961 32.2815 33.3328 29.0236 37.4526 29.0219C41.5661 29.0201 44.9037 32.2703 44.9117 36.2836C44.9187 40.3028 41.5838 43.5659 37.4631 43.5728C37.4614 43.5728 37.4605 43.5728 37.4578 43.5728Z" fill="#323232"/>
</g>
<defs>
<clipPath id="clip0">
<rect width="30.75" height="30" fill="white" transform="translate(25.625 25)"/>
</clipPath>
</defs>
</svg>
